<svg width="612" height="505" viewBox="0 0 612 505" fill="none" xmlns="http://www.w3.org/2000/svg">
<g filter="url(#filter0_d)">
<ellipse rx="233.5" ry="219" transform="matrix(-1 0 0 1 291.5 249)" fill="#FFE5D2"/>
<path fill-rule="evenodd" clip-rule="evenodd" d="M485.408 344.694C485.508 344.635 486.135 345.465 487.061 347.099C487.991 348.727 489.148 351.2 490.224 354.392C492.428 360.752 493.812 370.142 492.992 380.383C492.178 390.621 489.819 399.609 487.999 406.007C486.137 412.407 484.767 416.292 484.531 416.227C484.27 416.154 485.195 412.135 486.723 405.672C488.211 399.21 490.335 390.27 491.131 380.241C491.931 370.215 490.793 361.089 488.964 354.78C487.187 348.44 485.115 344.846 485.408 344.694" fill="white"/>
<path d="M485.408 344.694C485.508 344.635 486.135 345.465 487.061 347.099C487.991 348.727 489.148 351.2 490.224 354.392C492.428 360.752 493.812 370.142 492.992 380.383C492.178 390.621 489.819 399.609 487.999 406.007C486.137 412.407 484.767 416.292 484.531 416.227C484.27 416.154 485.195 412.135 486.723 405.672C488.211 399.21 490.335 390.27 491.131 380.241C491.931 370.215 490.793 361.089 488.964 354.78C487.187 348.44 485.115 344.846 485.408 344.694" stroke="black"/>
<path fill-rule="evenodd" clip-rule="evenodd" d="M491.696 293.45C491.813 293.398 492.57 294.789 493.835 297.355C495.098 299.921 496.873 303.66 498.973 308.326C503.138 317.657 508.744 330.719 512.81 345.884C514.809 353.47 516.172 360.844 516.862 367.617C517.557 374.388 517.628 380.54 517.28 385.674C516.943 390.812 516.297 394.934 515.675 397.736C515.059 400.545 514.572 402.057 514.462 402.033C514.117 401.966 515.639 395.784 515.963 385.613C516.365 375.463 515.036 361.361 511.007 346.366C506.987 331.367 501.61 318.297 497.761 308.85C495.823 304.123 494.256 300.297 493.171 297.652C492.111 294.996 491.578 293.503 491.696 293.45" fill="white"/>
<path d="M491.696 293.45C491.813 293.398 492.57 294.789 493.835 297.355C495.098 299.921 496.873 303.66 498.973 308.326C503.138 317.657 508.744 330.719 512.81 345.884C514.809 353.47 516.172 360.844 516.862 367.617C517.557 374.388 517.628 380.54 517.28 385.674C516.943 390.812 516.297 394.934 515.675 397.736C515.059 400.545 514.572 402.057 514.462 402.033C514.117 401.966 515.639 395.784 515.963 385.613C516.365 375.463 515.036 361.361 511.007 346.366C506.987 331.367 501.61 318.297 497.761 308.85C495.823 304.123 494.256 300.297 493.171 297.652C492.111 294.996 491.578 293.503 491.696 293.45" stroke="black"/>
<path fill-rule="evenodd" clip-rule="evenodd" d="M258.991 353.595C259.207 353.828 257.091 355.853 254.345 359.612C253.663 360.557 252.923 361.589 252.23 362.769C251.473 363.906 250.814 365.21 250.08 366.556C248.717 369.301 247.423 372.42 246.424 375.815C245.47 379.223 244.913 382.555 244.613 385.607C244.522 387.137 244.389 388.594 244.427 389.959C244.389 391.329 244.467 392.6 244.543 393.764C244.876 398.412 245.596 401.256 245.289 401.339C245.103 401.403 243.919 398.656 243.232 393.899C243.067 392.711 242.91 391.405 242.88 389.992C242.774 388.58 242.85 387.071 242.897 385.481C243.112 382.311 243.639 378.835 244.632 375.298C245.667 371.771 247.061 368.547 248.562 365.748C249.363 364.375 250.098 363.056 250.937 361.918C251.71 360.736 252.537 359.714 253.306 358.796C256.409 355.135 258.869 353.442 258.991 353.595" fill="white"/>
<path d="M258.991 353.595C259.207 353.828 257.091 355.853 254.345 359.612C253.663 360.557 252.923 361.589 252.23 362.769C251.473 363.906 250.814 365.21 250.08 366.556C248.717 369.301 247.423 372.42 246.424 375.815C245.47 379.223 244.913 382.555 244.613 385.607C244.522 387.137 244.389 388.594 244.427 389.959C244.389 391.329 244.467 392.6 244.543 393.764C244.876 398.412 245.596 401.256 245.289 401.339C245.103 401.403 243.919 398.656 243.232 393.899C243.067 392.711 242.91 391.405 242.88 389.992C242.774 388.58 242.85 387.071 242.897 385.481C243.112 382.311 243.639 378.835 244.632 375.298C245.667 371.771 247.061 368.547 248.562 365.748C249.363 364.375 250.098 363.056 250.937 361.918C251.71 360.736 252.537 359.714 253.306 358.796C256.409 355.135 258.869 353.442 258.991 353.595" stroke="black"/>
<path fill-rule="evenodd" clip-rule="evenodd" d="M263.957 370.001C264.114 370.252 262.935 371.156 261.395 372.887C260.615 373.741 259.793 374.849 258.985 376.133C258.211 377.438 257.47 378.936 256.887 380.587C256.33 382.247 255.995 383.885 255.803 385.393C255.65 386.903 255.616 388.282 255.705 389.439C255.855 391.753 256.228 393.196 255.95 393.297C255.75 393.381 254.911 392.061 254.398 389.615C254.13 388.395 254.02 386.902 254.089 385.248C254.198 383.599 254.513 381.791 255.123 379.977C255.757 378.171 256.621 376.554 257.548 375.187C258.509 373.841 259.514 372.734 260.472 371.94C262.379 370.329 263.851 369.809 263.957 370.001" fill="white"/>
<path d="M263.957 370.001C264.114 370.252 262.935 371.156 261.395 372.887C260.615 373.741 259.793 374.849 258.985 376.133C258.211 377.438 257.47 378.936 256.887 380.587C256.33 382.247 255.995 383.885 255.803 385.393C255.65 386.903 255.616 388.282 255.705 389.439C255.855 391.753 256.228 393.196 255.95 393.297C255.75 393.381 254.911 392.061 254.398 389.615C254.13 388.395 254.02 386.902 254.089 385.248C254.198 383.599 254.513 381.791 255.123 379.977C255.757 378.171 256.621 376.554 257.548 375.187C258.509 373.841 259.514 372.734 260.472 371.94C262.379 370.329 263.851 369.809 263.957 370.001" stroke="black"/>
<path fill-rule="evenodd" clip-rule="evenodd" d="M195.015 217.107C195.111 217.023 195.946 217.847 197.379 219.42C198.107 220.198 198.967 221.178 199.877 222.386C200.796 223.584 201.902 224.914 202.939 226.512C203.474 227.301 204.037 228.127 204.621 228.988C205.199 229.855 205.723 230.803 206.307 231.761C207.502 233.664 208.574 235.811 209.739 238.051C211.939 242.596 214.043 247.753 215.719 253.344C217.341 258.951 218.37 264.429 218.985 269.442C219.22 271.959 219.484 274.346 219.511 276.593C219.539 277.716 219.613 278.798 219.596 279.842C219.573 280.883 219.549 281.882 219.527 282.836C219.522 284.746 219.314 286.463 219.192 287.971C219.082 289.481 218.892 290.772 218.701 291.821C218.351 293.923 218.097 295.071 217.969 295.053C217.641 295.009 218.26 290.351 218.208 282.822C218.191 281.88 218.174 280.897 218.157 279.869C218.135 278.843 218.026 277.778 217.965 276.675C217.873 274.466 217.555 272.124 217.28 269.656C216.58 264.741 215.521 259.379 213.929 253.876C212.283 248.388 210.269 243.308 208.192 238.801C207.088 236.58 206.085 234.44 204.967 232.535C204.42 231.576 203.933 230.623 203.397 229.75C202.855 228.879 202.336 228.043 201.841 227.244C197.806 220.896 194.761 217.324 195.015 217.107" fill="white"/>
<path d="M195.015 217.107C195.111 217.023 195.946 217.847 197.379 219.42C198.107 220.198 198.967 221.178 199.877 222.386C200.796 223.584 201.902 224.914 202.939 226.512C203.474 227.301 204.037 228.127 204.621 228.988C205.199 229.855 205.723 230.803 206.307 231.761C207.502 233.664 208.574 235.811 209.739 238.051C211.939 242.596 214.043 247.753 215.719 253.344C217.341 258.951 218.37 264.429 218.985 269.442C219.22 271.959 219.484 274.346 219.511 276.593C219.539 277.716 219.613 278.798 219.596 279.842C219.573 280.883 219.549 281.882 219.527 282.836C219.522 284.746 219.314 286.463 219.192 287.971C219.082 289.481 218.892 290.772 218.701 291.821C218.351 293.923 218.097 295.071 217.969 295.053C217.641 295.009 218.26 290.351 218.208 282.822C218.191 281.88 218.174 280.897 218.157 279.869C218.135 278.843 218.026 277.778 217.965 276.675C217.873 274.466 217.555 272.124 217.28 269.656C216.58 264.741 215.521 259.379 213.929 253.876C212.283 248.388 210.269 243.308 208.192 238.801C207.088 236.58 206.085 234.44 204.967 232.535C204.42 231.576 203.933 230.623 203.397 229.75C202.855 228.879 202.336 228.043 201.841 227.244C197.806 220.896 194.761 217.324 195.015 217.107" stroke="black"/>
<path fill-rule="evenodd" clip-rule="evenodd" d="M216.144 225.879C216.303 225.737 218.446 227.748 221.172 231.625C222.544 233.555 223.989 235.987 225.396 238.791C226.762 241.615 228.066 244.821 229.106 248.296C230.115 251.78 230.756 255.184 231.139 258.299C231.476 261.421 231.581 264.249 231.473 266.618C231.284 271.357 230.574 274.214 230.365 274.182C230.065 274.145 230.305 271.252 230.153 266.616C230.092 264.3 229.854 261.549 229.435 258.524C228.969 255.504 228.295 252.212 227.317 248.827C226.306 245.452 225.087 242.32 223.843 239.532C222.557 236.762 221.267 234.324 220.064 232.345C217.68 228.371 215.913 226.074 216.144 225.879" fill="white"/>
<path d="M216.144 225.879C216.303 225.737 218.446 227.748 221.172 231.625C222.544 233.555 223.989 235.987 225.396 238.791C226.762 241.615 228.066 244.821 229.106 248.296C230.115 251.78 230.756 255.184 231.139 258.299C231.476 261.421 231.581 264.249 231.473 266.618C231.284 271.357 230.574 274.214 230.365 274.182C230.065 274.145 230.305 271.252 230.153 266.616C230.092 264.3 229.854 261.549 229.435 258.524C228.969 255.504 228.295 252.212 227.317 248.827C226.306 245.452 225.087 242.32 223.843 239.532C222.557 236.762 221.267 234.324 220.064 232.345C217.68 228.371 215.913 226.074 216.144 225.879" stroke="black"/>
<path fill-rule="evenodd" clip-rule="evenodd" d="M142.156 379.076L140.532 375.749L95.3121 410.414L115.04 442.48L160.053 404.401L142.156 379.076Z" fill="#FF7B5B" stroke="black"/>
<path fill-rule="evenodd" clip-rule="evenodd" d="M97.207 411.156L114.538 441.226L115.646 440.73L100.213 412.614L97.207 411.156Z" fill="#D7D4D4" stroke="black"/>
<path fill-rule="evenodd" clip-rule="evenodd" d="M141.263 378.418L97.207 411.155C97.207 411.155 97.3917 411.858 98.485 412.291C99.5796 412.725 100.213 412.614 100.213 412.614L146.529 380.809C146.529 380.809 143.859 380.186 142.891 379.461C141.921 378.734 141.263 378.418 141.263 378.418" fill="#F5F3F3"/>
<path d="M141.263 378.418L97.207 411.155C97.207 411.155 97.3917 411.858 98.485 412.291C99.5796 412.725 100.213 412.614 100.213 412.614L146.529 380.809C146.529 380.809 143.859 380.186 142.891 379.461C141.921 378.734 141.263 378.418 141.263 378.418" stroke="black"/>
<path fill-rule="evenodd" clip-rule="evenodd" d="M147.662 379.526L99.3854 411.879L115.065 441.694L117.591 445.823L165.869 409.973C165.869 409.973 160.784 402.358 157.731 397.761C154.678 393.163 148.685 382.321 148.359 381.626C148.031 380.931 147.662 379.526 147.662 379.526" fill="#FF7B5B"/>
<path d="M147.662 379.526L99.3854 411.879L115.065 441.694L117.591 445.823L165.869 409.973C165.869 409.973 160.784 402.358 157.731 397.761C154.678 393.163 148.685 382.321 148.359 381.626C148.031 380.931 147.662 379.526 147.662 379.526" stroke="black"/>
<path fill-rule="evenodd" clip-rule="evenodd" d="M545.786 156.166L547.15 153.371L585.122 182.481L568.556 209.408L530.757 177.431L545.786 156.166Z" fill="#775298" stroke="black"/>
<path fill-rule="evenodd" clip-rule="evenodd" d="M583.531 183.103L568.979 208.354L568.047 207.939L581.008 184.328L583.531 183.103Z" fill="#D7D4D4" stroke="black"/>
<path fill-rule="evenodd" clip-rule="evenodd" d="M546.537 155.612L583.532 183.103C583.532 183.103 583.375 183.693 582.459 184.057C581.539 184.421 581.007 184.328 581.007 184.328L542.113 157.62C542.113 157.62 544.356 157.098 545.169 156.488C545.983 155.878 546.537 155.612 546.537 155.612" fill="#F5F3F3"/>
<path d="M546.537 155.612L583.532 183.103C583.532 183.103 583.375 183.693 582.459 184.057C581.539 184.421 581.007 184.328 581.007 184.328L542.113 157.62C542.113 157.62 544.356 157.098 545.169 156.488C545.983 155.878 546.537 155.612 546.537 155.612" stroke="black"/>
<path fill-rule="evenodd" clip-rule="evenodd" d="M541.163 156.544L581.702 183.711L568.537 208.748L566.415 212.214L525.873 182.11C525.873 182.11 530.144 175.715 532.707 171.855C535.273 167.994 540.304 158.889 540.577 158.306C540.852 157.724 541.163 156.544 541.163 156.544" fill="#775298"/>
<path d="M541.163 156.544L581.702 183.711L568.537 208.748L566.415 212.214L525.873 182.11C525.873 182.11 530.144 175.715 532.707 171.855C535.273 167.994 540.304 158.889 540.577 158.306C540.852 157.724 541.163 156.544 541.163 156.544" stroke="black"/>
<path fill-rule="evenodd" clip-rule="evenodd" d="M88.1693 103.772C88.1693 103.772 85.3023 105.763 86.7352 109.083C88.1693 112.402 94.4546 122.248 102.946 121.916C103.293 121.904 92.2491 103.772 92.2491 103.772H88.1693Z" fill="#FF7B5B" stroke="black"/>
<path fill-rule="evenodd" clip-rule="evenodd" d="M75.1804 285.294C75.1804 285.294 64.5627 275.777 61.1633 277.482C57.0102 279.565 33.2393 302.933 34.1682 313.942C34.5499 318.451 39.7813 314.588 49.1033 304.886C58.4281 295.185 70.169 299.343 70.169 299.343L75.1804 285.294Z" fill="#775298" stroke="black"/>
<path fill-rule="evenodd" clip-rule="evenodd" d="M100.977 301.343L88.1592 293.628C88.1592 293.628 54.9345 324.88 60.1252 329.047C64.0623 332.207 66.3765 329.373 75.6999 319.671C85.022 309.972 96.8335 315.549 96.8335 315.549L100.977 301.343Z" fill="#775298" stroke="black"/>
<path fill-rule="evenodd" clip-rule="evenodd" d="M179.276 198.526L181.68 232.771L128.322 218.825L179.276 198.526Z" fill="#F3A683" stroke="black"/>
<path fill-rule="evenodd" clip-rule="evenodd" d="M128.322 220.003C128.322 220.003 174.995 222.955 181.21 220.874C181.21 220.874 190.331 310.777 174.101 320.476C157.871 330.178 121.449 315.972 121.449 315.972L131.283 296.571L152.486 295.185V260.54L150.965 260.886L128.322 220.003Z" fill="#112129" stroke="black"/>
<path fill-rule="evenodd" clip-rule="evenodd" d="M69.8169 281.327C69.8169 281.327 58.0774 286.178 61.876 297.958C61.876 297.958 101.95 329.485 121.449 322.209C132.374 318.133 144.109 287.035 152.319 260.466L181.21 220.874C181.21 220.874 167.584 221.558 163.039 221.54C154.351 221.507 128.323 220.003 128.323 220.003C128.323 220.003 114.727 291.375 109.882 293.107C105.038 294.838 69.8169 281.327 69.8169 281.327" fill="#22343D"/>
<path d="M69.8169 281.327C69.8169 281.327 58.0774 286.178 61.876 297.958C61.876 297.958 101.95 329.485 121.449 322.209C132.374 318.133 144.109 287.035 152.319 260.466L181.21 220.874C181.21 220.874 167.584 221.558 163.039 221.54C154.351 221.507 128.323 220.003 128.323 220.003C128.323 220.003 114.727 291.375 109.882 293.107C105.038 294.838 69.8169 281.327 69.8169 281.327" stroke="black"/>
<path fill-rule="evenodd" clip-rule="evenodd" d="M139.198 130.487C139.198 130.487 167.17 104.155 172.004 97.2248C176.837 90.2958 187.199 67.0833 199.972 57.3827L193.758 44.2169C193.758 44.2169 197.558 42.1388 199.972 47.6807C199.972 47.6807 208.95 29.6666 211.022 30.0114C213.096 30.3575 206.88 43.8707 206.88 43.8707C206.88 43.8707 215.515 31.3972 217.931 31.7446C220.345 32.0907 211.715 45.7662 211.715 45.7662C211.715 45.7662 221.382 34.5162 222.764 35.902C224.145 37.2878 215.167 45.7662 215.167 45.7662C215.167 45.7662 224.835 40.1971 225.872 42.0325C226.908 43.8707 216.203 48.7204 216.203 48.7204C216.203 48.7204 215.167 56.6891 208.607 60.1529C208.607 60.1529 195.617 95.3662 183.876 106.799L146.16 146.127L139.198 130.487Z" fill="#FFC6B2" stroke="black"/>
<path fill-rule="evenodd" clip-rule="evenodd" d="M105.809 144.134C105.809 144.134 79.3052 171.951 72.3544 176.735C65.4022 181.518 42.1718 191.698 32.3853 204.425L19.3216 198.066C19.3216 198.066 17.2152 201.856 22.7169 204.332C22.7169 204.332 4.67716 213.172 5.00446 215.255C5.32905 217.337 18.8544 211.227 18.8544 211.227C18.8544 211.227 6.3422 219.774 6.66543 222.201C6.98866 224.628 20.6974 216.095 20.6974 216.095C20.6974 216.095 9.39522 225.689 10.7642 227.087C12.1305 228.486 20.6662 219.56 20.6662 219.56C20.6662 219.56 15.0246 229.207 16.8472 230.263C18.667 231.319 23.601 220.625 23.601 220.625C23.601 220.625 31.5514 219.663 35.0675 213.112C35.0675 213.112 68.31 199.841 79.8158 188.169L121.184 158.759L105.809 144.134Z" fill="#FFC6B2" stroke="black"/>
<path fill-rule="evenodd" clip-rule="evenodd" d="M115.745 133.047L102.34 146.213L105.739 161.055C105.739 161.055 118.946 192.865 120.942 200.626C124.045 212.693 119.026 231.093 119.026 231.093C119.026 231.093 141.414 229.227 161.786 228.535C182.156 227.842 188.82 221.257 188.82 221.257C188.82 221.257 171.158 162.236 158.964 145.737C146.768 129.241 142.332 124.077 142.332 124.077L124.377 128.015L115.745 133.047Z" fill="white" stroke="black"/>
<path fill-rule="evenodd" clip-rule="evenodd" d="M155.085 143.792L169.051 134.838C169.051 134.838 171.185 125.245 154.342 113.93L134.591 126.347L155.085 143.792Z" fill="white" stroke="black"/>
<path fill-rule="evenodd" clip-rule="evenodd" d="M105.165 145.172C97.5078 146.25 83.5152 165.72 81.9547 165.684C81.9547 165.684 91.8024 181.808 99.6033 182.331C99.6033 182.331 133.932 141.123 105.165 145.172" fill="white"/>
<path d="M105.165 145.172C97.5078 146.25 83.5152 165.72 81.9547 165.684C81.9547 165.684 91.8024 181.808 99.6033 182.331C99.6033 182.331 133.932 141.123 105.165 145.172" stroke="black"/>
<path fill-rule="evenodd" clip-rule="evenodd" d="M132.194 132.503C132.194 132.503 121.064 124.159 121.45 120.833C121.548 119.995 123.09 118.635 123.491 117.428C125.649 110.932 115.245 94.195 108.852 90.6671C103.823 87.8928 106.027 87.6475 95.4434 93.9579C84.8596 100.268 90.8896 111.18 95.6158 116.824C100.084 122.159 105.201 124.444 109.805 124.83L116.351 139.418L132.194 132.503Z" fill="#FFC6B2" stroke="black"/>
<path fill-rule="evenodd" clip-rule="evenodd" d="M112.111 144.085C110.006 138.904 113.992 132.378 121.015 129.504C128.04 126.629 135.438 128.499 137.547 133.677C139.651 138.856 132.583 146.642 128.638 148.257C124.693 149.872 114.215 149.263 112.111 144.085" fill="#FFC6B2"/>
<path d="M112.111 144.085C110.006 138.904 113.992 132.378 121.015 129.504C128.04 126.629 135.438 128.499 137.547 133.677C139.651 138.856 132.583 146.642 128.638 148.257C124.693 149.872 114.215 149.263 112.111 144.085" stroke="black"/>
<path fill-rule="evenodd" clip-rule="evenodd" d="M95.6163 116.824C95.6163 116.824 92.0065 116.624 91.6058 119.037C91.2038 121.452 98.2225 121.452 100.83 119.641L95.6163 116.824Z" fill="#FFC6B2" stroke="black"/>
<path fill-rule="evenodd" clip-rule="evenodd" d="M97.4214 119.037C96.7356 114.676 92.103 111.433 92.3339 107.183C94.5544 107.2 95.9804 104.441 94.97 102.082C94.5721 101.156 93.8985 100.363 93.4679 99.4482C93.0388 98.5352 92.9247 97.3388 93.5834 96.8224C93.8957 96.5785 94.3181 96.5362 94.7228 96.4954C98.0149 96.1561 103.655 97.1467 106.685 96.0198C109.57 94.9474 112.661 92.8612 112.361 89.3156C112.098 86.2279 109.381 83.7247 106.885 81.8334C105.455 80.7487 101.368 77.9131 99.8266 78.1706C97.473 78.5631 96.9026 81.7135 96.7328 84.3502C95.0868 82.7777 92.6585 83.0298 91.2271 84.3093C89.7956 85.5888 89.1179 87.6219 88.4946 89.5841C87.8698 91.5476 87.2084 93.5861 85.796 94.8902C84.48 96.1057 82.398 97.0254 82.671 99.0926C82.9956 101.556 86.2034 102.432 87.6865 104.534C87.3211 104.018 87.0115 107.308 87.222 107.865C87.8549 109.545 89.4344 110.657 90.5765 111.942C93.0089 114.681 94.1986 117.439 97.4214 119.037" fill="#FF7B5B"/>
<path d="M97.4214 119.037C96.7356 114.676 92.103 111.433 92.3339 107.183C94.5544 107.2 95.9804 104.441 94.97 102.082C94.5721 101.156 93.8985 100.363 93.4679 99.4482C93.0388 98.5352 92.9247 97.3388 93.5834 96.8224C93.8957 96.5785 94.3181 96.5362 94.7228 96.4954C98.0149 96.1561 103.655 97.1467 106.685 96.0198C109.57 94.9474 112.661 92.8612 112.361 89.3156C112.098 86.2279 109.381 83.7247 106.885 81.8334C105.455 80.7487 101.368 77.9131 99.8266 78.1706C97.473 78.5631 96.9026 81.7135 96.7328 84.3502C95.0868 82.7777 92.6585 83.0298 91.2271 84.3093C89.7956 85.5888 89.1179 87.6219 88.4946 89.5841C87.8698 91.5476 87.2084 93.5861 85.796 94.8902C84.48 96.1057 82.398 97.0254 82.671 99.0926C82.9956 101.556 86.2034 102.432 87.6865 104.534C87.3211 104.018 87.0115 107.308 87.222 107.865C87.8549 109.545 89.4344 110.657 90.5765 111.942C93.0089 114.681 94.1986 117.439 97.4214 119.037" stroke="black"/>
<path fill-rule="evenodd" clip-rule="evenodd" d="M117.587 109.064L109.363 113.332C109.363 113.332 119.242 120.526 117.587 109.064" fill="white"/>
<path d="M117.587 109.064L109.363 113.332C109.363 113.332 119.242 120.526 117.587 109.064" stroke="black"/>
<path fill-rule="evenodd" clip-rule="evenodd" d="M106.272 110.756C106.722 111.612 106.056 112.849 104.786 113.519C103.517 114.19 102.123 114.04 101.674 113.184C101.226 112.328 101.89 111.092 103.159 110.421C104.431 109.75 105.823 109.9 106.272 110.756" fill="#FFB2A0"/>
<path d="M106.272 110.756C106.722 111.612 106.056 112.849 104.786 113.519C103.517 114.19 102.123 114.04 101.674 113.184C101.226 112.328 101.89 111.092 103.159 110.421C104.431 109.75 105.823 109.9 106.272 110.756" stroke="black"/>
<path fill-rule="evenodd" clip-rule="evenodd" d="M118.282 102.525C118.731 103.381 118.066 104.618 116.796 105.288C115.526 105.959 114.133 105.809 113.683 104.953C113.235 104.097 113.899 102.86 115.169 102.19C116.44 101.519 117.832 101.669 118.282 102.525" fill="#FFB2A0"/>
<path d="M118.282 102.525C118.731 103.381 118.066 104.618 116.796 105.288C115.526 105.959 114.133 105.809 113.683 104.953C113.235 104.097 113.899 102.86 115.169 102.19C116.44 101.519 117.832 101.669 118.282 102.525" stroke="black"/>
<path fill-rule="evenodd" clip-rule="evenodd" d="M111.846 108.761C111.808 108.713 111.961 108.51 112.317 108.253C112.657 107.99 113.248 107.706 113.686 107.232C114.121 106.773 114.277 105.815 113.611 105.68C112.92 105.445 112.135 106.24 111.235 106.997C111.012 107.182 110.792 107.366 110.573 107.547C110.37 107.735 109.941 108.01 109.495 107.954C108.646 107.817 108.285 107.249 107.959 106.868C107.307 106.029 106.905 105.15 106.682 104.39C106.241 102.853 106.439 101.861 106.545 101.869C106.693 101.862 106.742 102.816 107.303 104.168C107.586 104.839 108.008 105.603 108.623 106.323C108.923 106.689 109.301 107.029 109.57 107.04C109.682 107.046 109.771 107.007 109.983 106.829C110.199 106.648 110.416 106.464 110.636 106.278C111.089 105.911 111.482 105.539 112.001 105.192C112.505 104.852 113.223 104.636 113.867 104.856C114.554 105.037 114.957 105.841 114.838 106.4C114.76 106.969 114.478 107.389 114.157 107.696C113.48 108.264 112.874 108.401 112.492 108.573C112.101 108.722 111.887 108.814 111.846 108.761" fill="#FF7B5B"/>
<path d="M111.846 108.761C111.808 108.713 111.961 108.51 112.317 108.253C112.657 107.99 113.248 107.706 113.686 107.232C114.121 106.773 114.277 105.815 113.611 105.68C112.92 105.445 112.135 106.24 111.235 106.997C111.012 107.182 110.792 107.366 110.573 107.547C110.37 107.735 109.941 108.01 109.495 107.954C108.646 107.817 108.285 107.249 107.959 106.868C107.307 106.029 106.905 105.15 106.682 104.39C106.241 102.853 106.439 101.861 106.545 101.869C106.693 101.862 106.742 102.816 107.303 104.168C107.586 104.839 108.008 105.603 108.623 106.323C108.923 106.689 109.301 107.029 109.57 107.04C109.682 107.046 109.771 107.007 109.983 106.829C110.199 106.648 110.416 106.464 110.636 106.278C111.089 105.911 111.482 105.539 112.001 105.192C112.505 104.852 113.223 104.636 113.867 104.856C114.554 105.037 114.957 105.841 114.838 106.4C114.76 106.969 114.478 107.389 114.157 107.696C113.48 108.264 112.874 108.401 112.492 108.573C112.101 108.722 111.887 108.814 111.846 108.761" stroke="black"/>
<path fill-rule="evenodd" clip-rule="evenodd" d="M109.805 124.83C109.805 124.83 115.052 124.86 117.898 123.101C117.898 123.101 115.49 126.069 110.672 126.837L109.805 124.83Z" fill="#FFA192" stroke="black"/>
<path fill-rule="evenodd" clip-rule="evenodd" d="M112.081 101.224C112.033 101.484 111.3 101.565 110.524 101.908C109.738 102.227 109.17 102.7 108.952 102.553C108.728 102.434 109.098 101.494 110.16 101.045C111.221 100.594 112.15 100.979 112.081 101.224" fill="#22343D"/>
<path d="M112.081 101.224C112.033 101.484 111.3 101.565 110.524 101.908C109.738 102.227 109.17 102.7 108.952 102.553C108.728 102.434 109.098 101.494 110.16 101.045C111.221 100.594 112.15 100.979 112.081 101.224" stroke="black"/>
<path fill-rule="evenodd" clip-rule="evenodd" d="M101.799 107.991C101.601 107.843 101.912 106.996 102.667 106.147C103.432 105.28 104.408 104.991 104.511 105.234C104.62 105.47 104.025 106.019 103.356 106.781C102.675 107.54 102.014 108.151 101.799 107.991" fill="#22343D"/>
<path d="M101.799 107.991C101.601 107.843 101.912 106.996 102.667 106.147C103.432 105.28 104.408 104.991 104.511 105.234C104.62 105.47 104.025 106.019 103.356 106.781C102.675 107.54 102.014 108.151 101.799 107.991" stroke="black"/>
<path fill-rule="evenodd" clip-rule="evenodd" d="M97.8138 106.683C97.3887 106.366 97.0574 105.013 98.6844 103.19C100.326 101.326 102.161 101.654 102.381 102.172C102.617 102.681 102.006 103.404 100.565 105.043C99.1027 106.677 98.2742 107.029 97.8138 106.683" fill="#FF7B5B"/>
<path d="M97.8138 106.683C97.3887 106.366 97.0574 105.013 98.6844 103.19C100.326 101.326 102.161 101.654 102.381 102.172C102.617 102.681 102.006 103.404 100.565 105.043C99.1027 106.677 98.2742 107.029 97.8138 106.683" stroke="black"/>
<path fill-rule="evenodd" clip-rule="evenodd" d="M106.451 99.5008C106.216 99.0593 106.475 97.7743 108.591 96.8791C110.737 95.9538 112.167 96.9744 112.146 97.5045C112.142 98.0318 111.334 98.4011 109.449 99.216C107.551 100.016 106.705 99.9818 106.451 99.5008" fill="#FF7B5B"/>
<path d="M106.451 99.5008C106.216 99.0593 106.475 97.7743 108.591 96.8791C110.737 95.9538 112.167 96.9744 112.146 97.5045C112.142 98.0318 111.334 98.4011 109.449 99.216C107.551 100.016 106.705 99.9818 106.451 99.5008" stroke="black"/>
<path fill-rule="evenodd" clip-rule="evenodd" d="M557.766 112.283C557.905 112.42 555.626 114.993 550.897 117.795C546.226 120.593 538.878 123.368 530.425 123.43C521.972 123.493 514.582 120.828 509.871 118.098C505.103 115.368 502.786 112.828 502.922 112.687C503.119 112.438 505.71 114.58 510.485 116.925C515.214 119.28 522.341 121.617 530.41 121.558C538.481 121.497 545.572 119.055 550.267 116.631C555.005 114.215 557.567 112.035 557.766 112.283" fill="#775298"/>
<path d="M557.766 112.283C557.905 112.42 555.626 114.993 550.897 117.795C546.226 120.593 538.878 123.368 530.425 123.43C521.972 123.493 514.582 120.828 509.871 118.098C505.103 115.368 502.786 112.828 502.922 112.687C503.119 112.438 505.71 114.58 510.485 116.925C515.214 119.28 522.341 121.617 530.41 121.558C538.481 121.497 545.572 119.055 550.267 116.631C555.005 114.215 557.567 112.035 557.766 112.283" stroke="black"/>
<path fill-rule="evenodd" clip-rule="evenodd" d="M506.198 108.397C506.069 108.681 503.546 107.631 499.295 106.68C497.176 106.178 494.605 105.791 491.742 105.434C488.868 105.115 485.692 104.862 482.337 104.622C478.981 104.386 475.77 104.115 472.852 103.753C469.935 103.364 467.314 102.902 465.155 102.317C460.819 101.181 458.364 99.8379 458.45 99.6485C458.562 99.3623 461.144 100.247 465.437 101.022C467.579 101.432 470.163 101.75 473.041 102.037C475.926 102.302 479.112 102.518 482.472 102.755C485.834 102.995 489.052 103.304 491.966 103.724C494.879 104.183 497.492 104.717 499.63 105.399C503.923 106.714 506.294 108.218 506.198 108.397" fill="#775298"/>
<path d="M506.198 108.397C506.069 108.681 503.546 107.631 499.295 106.68C497.176 106.178 494.605 105.791 491.742 105.434C488.868 105.115 485.692 104.862 482.337 104.622C478.981 104.386 475.77 104.115 472.852 103.753C469.935 103.364 467.314 102.902 465.155 102.317C460.819 101.181 458.364 99.8379 458.45 99.6485C458.562 99.3623 461.144 100.247 465.437 101.022C467.579 101.432 470.163 101.75 473.041 102.037C475.926 102.302 479.112 102.518 482.472 102.755C485.834 102.995 489.052 103.304 491.966 103.724C494.879 104.183 497.492 104.717 499.63 105.399C503.923 106.714 506.294 108.218 506.198 108.397" stroke="black"/>
<mask id="mask0" mask-type="alpha" maskUnits="userSpaceOnUse" x="437" y="35" width="171" height="85">
<path fill-rule="evenodd" clip-rule="evenodd" d="M438.032 36.2061H607.356V119.441H438.032V36.2061Z" fill="white" stroke="white"/>
</mask>
<g mask="url(#mask0)">
<path fill-rule="evenodd" clip-rule="evenodd" d="M455.063 53.0653C463.122 51.3497 471.472 52.8268 479.598 54.1854C487.724 55.5439 496.161 56.769 504.106 54.5806C518.45 50.6303 529.34 36.0896 544.215 36.2068C550.34 36.2545 556.113 38.8789 562.081 40.2674C569.491 41.9925 577.21 41.8072 584.716 43.0377C592.224 44.2681 599.979 47.2973 604.222 53.6322C609.255 61.1498 607.875 71.7539 602.593 79.0985C597.312 86.4445 588.853 90.9166 580.187 93.4512C574.142 95.2185 567.702 96.2405 562.471 99.7574C557.179 103.315 553.724 109.041 548.795 113.087C536.424 123.237 517.171 120.328 504.393 110.699C501.182 108.281 498.206 105.474 494.599 103.704C479.928 96.498 458.827 106.036 446.191 92.9265C433.359 79.6122 435.187 57.2949 455.063 53.0653" fill="#775298"/>
<path d="M455.063 53.0653C463.122 51.3497 471.472 52.8268 479.598 54.1854C487.724 55.5439 496.161 56.769 504.106 54.5806C518.45 50.6303 529.34 36.0896 544.215 36.2068C550.34 36.2545 556.113 38.8789 562.081 40.2674C569.491 41.9925 577.21 41.8072 584.716 43.0377C592.224 44.2681 599.979 47.2973 604.222 53.6322C609.255 61.1498 607.875 71.7539 602.593 79.0985C597.312 86.4445 588.853 90.9166 580.187 93.4512C574.142 95.2185 567.702 96.2405 562.471 99.7574C557.179 103.315 553.724 109.041 548.795 113.087C536.424 123.237 517.171 120.328 504.393 110.699C501.182 108.281 498.206 105.474 494.599 103.704C479.928 96.498 458.827 106.036 446.191 92.9265C433.359 79.6122 435.187 57.2949 455.063 53.0653" stroke="black"/>
</g>
<path fill-rule="evenodd" clip-rule="evenodd" d="M451.037 310.916C451.037 310.916 464.479 339.825 466.052 334.472C467.62 329.117 467.102 316.261 466.26 314.425C465.414 312.59 459.919 304.481 459.919 304.481L451.037 310.916Z" fill="#FFB2A0" stroke="black"/>
<path fill-rule="evenodd" clip-rule="evenodd" d="M548.238 77.1517C549.482 78.7501 548.651 77.0331 550.06 79.3387C555.913 79.1343 559.842 74.1648 559.842 74.1648C559.842 74.1648 569.133 74.4114 569.026 72.7463C568.92 71.0784 560.119 71.7011 560.119 71.7011C560.119 71.7011 569.429 68.7674 568.918 67.3026C568.41 65.8391 557.662 70.5075 557.662 70.5075C557.662 70.5075 568.508 63.7529 566.905 62.6696C565.304 61.589 554.869 67.4851 554.869 67.4851C554.869 67.4851 563.938 60.0111 562.579 59.0477C561.222 58.0843 548.642 67.8122 548.642 67.8122C548.825 63.0266 545.404 63.1942 545.404 63.1942L545.545 74.8788C545.545 74.8788 547.665 76.4159 548.238 77.1517" fill="#FFC6B2"/>
<path d="M548.238 77.1517C549.482 78.7501 548.651 77.0331 550.06 79.3387C555.913 79.1343 559.842 74.1648 559.842 74.1648C559.842 74.1648 569.133 74.4114 569.026 72.7463C568.92 71.0784 560.119 71.7011 560.119 71.7011C560.119 71.7011 569.429 68.7674 568.918 67.3026C568.41 65.8391 557.662 70.5075 557.662 70.5075C557.662 70.5075 568.508 63.7529 566.905 62.6696C565.304 61.589 554.869 67.4851 554.869 67.4851C554.869 67.4851 563.938 60.0111 562.579 59.0477C561.222 58.0843 548.642 67.8122 548.642 67.8122C548.825 63.0266 545.404 63.1942 545.404 63.1942L545.545 74.8788C545.545 74.8788 547.665 76.4159 548.238 77.1517" stroke="black"/>
<path fill-rule="evenodd" clip-rule="evenodd" d="M410.522 24.2676C408.533 24.6355 410.075 23.9419 407.494 24.7322C403.256 20.677 403.818 14.3039 403.818 14.3039C403.818 14.3039 396.71 8.30017 397.888 7.12694C399.074 5.95098 405.241 12.2791 405.241 12.2791C405.241 12.2791 400.223 3.8825 401.573 3.1276C402.922 2.37269 407.872 13.0231 407.872 13.0231C407.872 13.0231 404.229 0.747068 406.144 1.00461C408.057 1.26215 411.96 12.6211 411.96 12.6211C411.96 12.6211 410.124 0.992343 411.774 1.1763C413.427 1.35889 416.399 17.0142 416.399 17.0142C419.428 13.3133 421.874 15.7184 421.874 15.7184L414.197 24.1899C414.197 24.1899 411.436 24.0999 410.522 24.2676" fill="#FFC6B2"/>
<path d="M410.522 24.2676C408.533 24.6355 410.075 23.9419 407.494 24.7322C403.256 20.677 403.818 14.3039 403.818 14.3039C403.818 14.3039 396.71 8.30017 397.888 7.12694C399.074 5.95098 405.241 12.2791 405.241 12.2791C405.241 12.2791 400.223 3.8825 401.573 3.1276C402.922 2.37269 407.872 13.0231 407.872 13.0231C407.872 13.0231 404.229 0.747068 406.144 1.00461C408.057 1.26215 411.96 12.6211 411.96 12.6211C411.96 12.6211 410.124 0.992343 411.774 1.1763C413.427 1.35889 416.399 17.0142 416.399 17.0142C419.428 13.3133 421.874 15.7184 421.874 15.7184L414.197 24.1899C414.197 24.1899 411.436 24.0999 410.522 24.2676" stroke="black"/>
<path fill-rule="evenodd" clip-rule="evenodd" d="M458.744 73.0757C456.173 72.6519 449.957 76.7971 446.847 83.553C445.106 87.3343 443.908 91.1756 445.906 97.3252C446.847 100.218 448.817 100.581 449.257 101.876C449.812 103.517 447.972 108.688 447.972 108.688L455.31 111.662C455.786 108.109 456.327 104.535 459.935 102.992C461.285 102.415 462.73 102.049 464.004 101.316C467.442 99.3392 469.278 95.0142 470.69 91.4727C471.744 88.8278 465.19 74.1358 458.744 73.0757" fill="#FFC6B2"/>
<path d="M458.744 73.0757C456.173 72.6519 449.957 76.7971 446.847 83.553C445.106 87.3343 443.908 91.1756 445.906 97.3252C446.847 100.218 448.817 100.581 449.257 101.876C449.812 103.517 447.972 108.688 447.972 108.688L455.31 111.662C455.786 108.109 456.327 104.535 459.935 102.992C461.285 102.415 462.73 102.049 464.004 101.316C467.442 99.3392 469.278 95.0142 470.69 91.4727C471.744 88.8278 465.19 74.1358 458.744 73.0757" stroke="black"/>
<path fill-rule="evenodd" clip-rule="evenodd" d="M450.009 173.479L437.716 168.53C437.716 168.53 401.232 236.413 401.384 255.247C401.535 274.08 451.493 311.788 451.493 311.788L459.918 304.482C459.918 304.482 444.494 277.497 436.249 267.983C428.003 258.467 450.009 173.479 450.009 173.479" fill="#FFB2A0"/>
<path d="M450.009 173.479L437.716 168.53C437.716 168.53 401.232 236.413 401.384 255.247C401.535 274.08 451.493 311.788 451.493 311.788L459.918 304.482C459.918 304.482 444.494 277.497 436.249 267.983C428.003 258.467 450.009 173.479 450.009 173.479" stroke="black"/>
<path fill-rule="evenodd" clip-rule="evenodd" d="M511.049 250.807C511.049 250.807 538.144 237.909 532.7 236.77C527.255 235.636 514.522 237.199 512.768 238.191C511.012 239.184 503.404 245.336 503.404 245.336L511.049 250.807Z" fill="#FFC6B2" stroke="black"/>
<path fill-rule="evenodd" clip-rule="evenodd" d="M462.085 172.89L443.436 179.698C443.436 179.698 424.781 262.023 431.903 274.948C439.022 287.878 459.023 279.322 487.508 263.724L511.367 250.656L503.403 245.338C503.403 245.338 475.639 250.796 467.842 256.239C467.842 256.239 471.911 244.671 477.337 228.343C482.761 212.013 486.503 195.344 462.085 172.89" fill="#FFC6B2"/>
<path d="M462.085 172.89L443.436 179.698C443.436 179.698 424.781 262.023 431.903 274.948C439.022 287.878 459.023 279.322 487.508 263.724L511.367 250.656L503.403 245.338C503.403 245.338 475.639 250.796 467.842 256.239C467.842 256.239 471.911 244.671 477.337 228.343C482.761 212.013 486.503 195.344 462.085 172.89" stroke="black"/>
<path fill-rule="evenodd" clip-rule="evenodd" d="M439.13 116.805C439.13 111.335 440.885 107.379 446.336 107.379C451.788 107.379 459.324 109.296 459.324 114.767C459.324 120.24 455.028 129.123 449.574 129.123C444.123 129.123 439.13 122.277 439.13 116.805" fill="#FFC6B2"/>
<path d="M439.13 116.805C439.13 111.335 440.885 107.379 446.336 107.379C451.788 107.379 459.324 109.296 459.324 114.767C459.324 120.24 455.028 129.123 449.574 129.123C444.123 129.123 439.13 122.277 439.13 116.805" stroke="black"/>
<path fill-rule="evenodd" clip-rule="evenodd" d="M443.435 106.595C443.435 106.595 426.483 88.1889 423.092 70.1571C419.7 52.128 413.938 22.8708 413.938 22.8708L407.496 24.7322C407.496 24.7322 404.443 64.7161 407.496 70.8384C410.546 76.9621 425.457 117.729 429.997 128.436L443.435 106.595Z" fill="#FFC6B2" stroke="black"/>
<path fill-rule="evenodd" clip-rule="evenodd" d="M461.648 120.941C461.648 120.941 462.951 115.215 484.388 107.433C505.824 99.6525 546.266 74.4314 546.266 74.4314L550.301 79.063C550.301 79.063 528.327 104.529 515.543 108.996C502.759 113.464 475.606 131.076 472.813 132.485C468.588 134.618 468.639 137.301 461.648 120.941" fill="#FFC6B2"/>
<path d="M461.648 120.941C461.648 120.941 462.951 115.215 484.388 107.433C505.824 99.6525 546.266 74.4314 546.266 74.4314L550.301 79.063C550.301 79.063 528.327 104.529 515.543 108.996C502.759 113.464 475.606 131.076 472.813 132.485C468.588 134.618 468.639 137.301 461.648 120.941" stroke="black"/>
<path fill-rule="evenodd" clip-rule="evenodd" d="M443.435 106.595C443.435 106.595 426.212 112.196 426.212 138.491C426.212 138.491 426.222 174.504 430.282 181.055C430.282 181.055 436.881 182.752 445.108 181.055C453.735 179.276 462.085 172.89 462.085 172.89L475.633 132.081L474.013 112.96L455.592 109.392C455.592 109.392 460.876 134.168 441.756 123.517C438.041 121.447 447.223 107.39 447.223 107.39L443.435 106.595Z" fill="#22343D" stroke="black"/>
<path fill-rule="evenodd" clip-rule="evenodd" d="M428.862 127.981L420.375 110.241C420.375 110.241 421.592 99.4787 437.172 95.6224C437.172 95.6224 438.748 101.047 440.475 103.12C442.201 105.191 447.229 107.396 447.229 107.396L428.862 127.981Z" fill="#22343D" stroke="black"/>
<path fill-rule="evenodd" clip-rule="evenodd" d="M460.947 135.112L487.934 129.562C487.934 129.562 492.626 119.808 481.501 108.205C481.501 108.205 460.45 109.481 457.726 109.708C455.044 109.932 456.885 112.004 456.885 112.004L460.947 135.112Z" fill="#22343D" stroke="black"/>
<path fill-rule="evenodd" clip-rule="evenodd" d="M430.239 172.283C430.239 172.283 404.713 219.634 400.496 228.094C400.496 228.094 475.802 262.802 506.371 221.025C506.371 221.025 488.982 184.098 462.1 170.039L450.503 166.555L430.692 172.056" fill="#22343D"/>
<path d="M430.239 172.283C430.239 172.283 404.713 219.634 400.496 228.094C400.496 228.094 475.802 262.802 506.371 221.025C506.371 221.025 488.982 184.098 462.1 170.039L450.503 166.555L430.692 172.056" stroke="black"/>
<path fill-rule="evenodd" clip-rule="evenodd" d="M469.702 91.025C469.702 91.025 472.61 88.1076 474.398 90.127C476.187 92.1464 467.913 95.0638 467.913 95.0638L469.702 91.025Z" fill="#FFC6B2" stroke="black"/>
<path fill-rule="evenodd" clip-rule="evenodd" d="M522.888 51.2363C522.916 51.3371 521.793 51.8249 519.649 52.3359C517.51 52.8523 514.336 53.3211 510.393 53.4015C506.453 53.4805 501.768 53.129 496.64 52.4313C491.507 51.7486 485.932 50.7457 480.067 50.1039C474.211 49.4757 468.58 49.3613 463.593 50.1693C458.605 50.9637 454.287 52.603 450.987 54.5175C447.687 56.447 445.39 58.5877 443.98 60.2079C442.563 61.8294 441.924 62.865 441.78 62.7778C441.702 62.7369 442.128 61.5705 443.413 59.7527C444.689 57.9404 446.942 55.549 450.302 53.3865C453.66 51.2376 458.122 49.3912 463.308 48.4674C468.5 47.5299 474.307 47.6021 480.265 48.2425C486.228 48.8952 491.81 49.9554 496.883 50.7239C501.954 51.5074 506.538 51.9871 510.397 52.077C518.134 52.2937 522.817 50.916 522.888 51.2363" fill="#775298"/>
<path d="M522.888 51.2363C522.916 51.3371 521.793 51.8249 519.649 52.3359C517.51 52.8523 514.336 53.3211 510.393 53.4015C506.453 53.4805 501.768 53.129 496.64 52.4313C491.507 51.7486 485.932 50.7457 480.067 50.1039C474.211 49.4757 468.58 49.3613 463.593 50.1693C458.605 50.9637 454.287 52.603 450.987 54.5175C447.687 56.447 445.39 58.5877 443.98 60.2079C442.563 61.8294 441.924 62.865 441.78 62.7778C441.702 62.7369 442.128 61.5705 443.413 59.7527C444.689 57.9404 446.942 55.549 450.302 53.3865C453.66 51.2376 458.122 49.3912 463.308 48.4674C468.5 47.5299 474.307 47.6021 480.265 48.2425C486.228 48.8952 491.81 49.9554 496.883 50.7239C501.954 51.5074 506.538 51.9871 510.397 52.077C518.134 52.2937 522.817 50.916 522.888 51.2363" stroke="black"/>
<path fill-rule="evenodd" clip-rule="evenodd" d="M454.895 89.3689C454.887 89.4833 454.058 89.5637 452.794 89.1427C452.481 89.0323 452.112 88.8878 451.768 88.5717C451.599 88.4136 451.441 88.2038 451.345 87.9517C451.206 87.5988 451.217 87.1982 451.354 86.8929C451.395 86.8316 451.392 86.6858 451.472 86.6831L451.718 86.6749C451.876 86.6531 452.062 86.7049 452.244 86.739C452.578 86.803 452.685 86.7935 452.923 86.8098C453.34 86.8194 453.772 86.7758 454.204 86.6804C455.969 86.307 457.151 85.0179 457.68 83.9578C458.236 82.8909 458.285 82.0883 458.433 82.0978C458.537 82.0842 458.744 82.9372 458.285 84.2249C458.051 84.8558 457.645 85.5794 456.989 86.2143C456.337 86.848 455.434 87.3685 454.409 87.5933C453.897 87.7078 453.382 87.7514 452.886 87.7255C452.67 87.7146 452.331 87.671 452.232 87.6492C452.141 87.6342 452.151 87.6138 452.134 87.6247C452.123 87.6356 452.118 87.6533 452.119 87.6792C452.156 87.8018 452.222 87.919 452.316 88.0239C452.505 88.2379 452.779 88.3973 453.046 88.5308C454.14 89.0691 454.915 89.2285 454.895 89.3689" fill="#FF7B5B"/>
<path d="M454.895 89.3689C454.887 89.4833 454.058 89.5637 452.794 89.1427C452.481 89.0323 452.112 88.8878 451.768 88.5717C451.599 88.4136 451.441 88.2038 451.345 87.9517C451.206 87.5988 451.217 87.1982 451.354 86.8929C451.395 86.8316 451.392 86.6858 451.472 86.6831L451.718 86.6749C451.876 86.6531 452.062 86.7049 452.244 86.739C452.578 86.803 452.685 86.7935 452.923 86.8098C453.34 86.8194 453.772 86.7758 454.204 86.6804C455.969 86.307 457.151 85.0179 457.68 83.9578C458.236 82.8909 458.285 82.0883 458.433 82.0978C458.537 82.0842 458.744 82.9372 458.285 84.2249C458.051 84.8558 457.645 85.5794 456.989 86.2143C456.337 86.848 455.434 87.3685 454.409 87.5933C453.897 87.7078 453.382 87.7514 452.886 87.7255C452.67 87.7146 452.331 87.671 452.232 87.6492C452.141 87.6342 452.151 87.6138 452.134 87.6247C452.123 87.6356 452.118 87.6533 452.119 87.6792C452.156 87.8018 452.222 87.919 452.316 88.0239C452.505 88.2379 452.779 88.3973 453.046 88.5308C454.14 89.0691 454.915 89.2285 454.895 89.3689" stroke="black"/>
<path fill-rule="evenodd" clip-rule="evenodd" d="M448.841 89.6842L458.782 93.6141C458.782 93.6141 450.046 99.6587 448.841 89.6842" fill="white"/>
<path d="M448.841 89.6842L458.782 93.6141C458.782 93.6141 450.046 99.6587 448.841 89.6842" stroke="black"/>
<path fill-rule="evenodd" clip-rule="evenodd" d="M463.028 91.5752C462.675 92.2483 461.58 92.3655 460.582 91.8382C459.583 91.3122 459.061 90.3393 459.412 89.6675C459.765 88.9943 460.861 88.8758 461.86 89.4031C462.858 89.9305 463.381 90.902 463.028 91.5752" fill="#FFB2A0"/>
<path d="M463.028 91.5752C462.675 92.2483 461.58 92.3655 460.582 91.8382C459.583 91.3122 459.061 90.3393 459.412 89.6675C459.765 88.9943 460.861 88.8758 461.86 89.4031C462.858 89.9305 463.381 90.902 463.028 91.5752" stroke="black"/>
<path fill-rule="evenodd" clip-rule="evenodd" d="M451.933 85.6728C451.631 86.3704 450.549 86.5721 449.514 86.1224C448.479 85.6728 447.883 84.7434 448.184 84.0458C448.484 83.3481 449.568 83.1464 450.603 83.5961C451.638 84.0458 452.234 84.9751 451.933 85.6728" fill="#FFB2A0"/>
<path d="M451.933 85.6728C451.631 86.3704 450.549 86.5721 449.514 86.1224C448.479 85.6728 447.883 84.7434 448.184 84.0458C448.484 83.3481 449.568 83.1464 450.603 83.5961C451.638 84.0458 452.234 84.9751 451.933 85.6728" stroke="black"/>
<path fill-rule="evenodd" clip-rule="evenodd" d="M448.25 100.623C448.25 100.623 451.735 103.552 455.371 102.609C455.371 102.609 454.117 104.495 449.292 103.802C449.292 103.802 449.692 101.724 448.25 100.623" fill="#FFA192"/>
<path d="M448.25 100.623C448.25 100.623 451.735 103.552 455.371 102.609C455.371 102.609 454.117 104.495 449.292 103.802C449.292 103.802 449.692 101.724 448.25 100.623" stroke="black"/>
<path fill-rule="evenodd" clip-rule="evenodd" d="M462.074 85.3108C462.074 85.7469 461.721 86.1012 461.286 86.1012C460.852 86.1012 460.499 85.7469 460.499 85.3108C460.499 84.8748 460.852 84.5205 461.286 84.5205C461.721 84.5205 462.074 84.8748 462.074 85.3108" fill="#22343D"/>
<path d="M462.074 85.3108C462.074 85.7469 461.721 86.1012 461.286 86.1012C460.852 86.1012 460.499 85.7469 460.499 85.3108C460.499 84.8748 460.852 84.5205 461.286 84.5205C461.721 84.5205 462.074 84.8748 462.074 85.3108" stroke="black"/>
<path fill-rule="evenodd" clip-rule="evenodd" d="M455.628 82.9815C455.628 83.4175 455.275 83.7718 454.841 83.7718C454.406 83.7718 454.054 83.4175 454.054 82.9815C454.054 82.5454 454.406 82.1912 454.841 82.1912C455.275 82.1912 455.628 82.5454 455.628 82.9815" fill="#22343D"/>
<path d="M455.628 82.9815C455.628 83.4175 455.275 83.7718 454.841 83.7718C454.406 83.7718 454.054 83.4175 454.054 82.9815C454.054 82.5454 454.406 82.1912 454.841 82.1912C455.275 82.1912 455.628 82.5454 455.628 82.9815" stroke="black"/>
<path fill-rule="evenodd" clip-rule="evenodd" d="M464.605 83.2057C464.361 83.3092 463.892 82.7383 463.18 82.2764C462.483 81.794 461.777 81.5773 461.778 81.313C461.755 81.0595 462.741 80.8538 463.699 81.4983C464.658 82.1387 464.848 83.1294 464.605 83.2057" fill="#775298"/>
<path d="M464.605 83.2057C464.361 83.3092 463.892 82.7383 463.18 82.2764C462.483 81.794 461.777 81.5773 461.778 81.313C461.755 81.0595 462.741 80.8538 463.699 81.4983C464.658 82.1387 464.848 83.1294 464.605 83.2057" stroke="black"/>
<path fill-rule="evenodd" clip-rule="evenodd" d="M453.245 79.3713C453.229 79.1247 454.075 78.814 455.208 78.844C456.361 78.8685 457.212 79.4299 457.094 79.6643C456.985 79.9014 456.183 79.7992 455.171 79.7801C454.154 79.7501 453.261 79.6397 453.245 79.3713" fill="#775298"/>
<path d="M453.245 79.3713C453.229 79.1247 454.075 78.814 455.208 78.844C456.361 78.8685 457.212 79.4299 457.094 79.6643C456.985 79.9014 456.183 79.7992 455.171 79.7801C454.154 79.7501 453.261 79.6397 453.245 79.3713" stroke="black"/>
<path fill-rule="evenodd" clip-rule="evenodd" d="M456.795 322.663C456.795 322.663 460.93 337.39 465.2 336.184C469.47 334.98 466.259 314.426 466.259 314.426L461.999 307.67C461.999 307.67 466.001 342.075 456.795 322.663" fill="#22343D"/>
<path d="M456.795 322.663C456.795 322.663 460.93 337.39 465.2 336.184C469.47 334.98 466.259 314.426 466.259 314.426L461.999 307.67C461.999 307.67 466.001 342.075 456.795 322.663" stroke="black"/>
<path fill-rule="evenodd" clip-rule="evenodd" d="M508.941 241.015C508.941 241.015 511.948 237.723 515.593 237.175C519.24 236.626 532.271 235.071 534.184 236.808C536.099 238.546 523.622 244.371 523.622 244.371C523.622 244.371 527.97 241.591 526.165 240.558C522.975 238.728 508.941 241.015 508.941 241.015" fill="#22343D"/>
<path d="M508.941 241.015C508.941 241.015 511.948 237.723 515.593 237.175C519.24 236.626 532.271 235.071 534.184 236.808C536.099 238.546 523.622 244.371 523.622 244.371C523.622 244.371 527.97 241.591 526.165 240.558C522.975 238.728 508.941 241.015 508.941 241.015" stroke="black"/>
<path fill-rule="evenodd" clip-rule="evenodd" d="M503.771 244.958L507.851 253.269L510.077 252.029L504.636 243.842L503.771 244.958Z" fill="#22343D" stroke="black"/>
<path fill-rule="evenodd" clip-rule="evenodd" d="M458.15 301.149L448.135 310.205L451.103 312.687L459.51 303.507L458.15 301.149Z" fill="#22343D" stroke="black"/>
<path fill-rule="evenodd" clip-rule="evenodd" d="M248.778 210.994C245.93 203.902 244.836 196.007 240.586 189.662C234.47 180.531 222.724 176 217.762 166.189C215.654 162.022 214.993 157.255 214.971 152.583C214.93 143.339 217.688 133.511 224.805 127.637C232.982 120.887 245.251 120.981 254.829 125.515C264.403 130.05 271.719 138.282 277.939 146.88C284.161 155.477 289.607 164.703 296.851 172.451C302.222 178.196 308.593 183.151 312.639 189.9C323.731 208.403 312.319 231.815 292.737 238.493C275.532 244.359 254.731 225.819 248.778 210.994" fill="#22343D"/>
<path d="M248.778 210.994C245.93 203.902 244.836 196.007 240.586 189.662C234.47 180.531 222.724 176 217.762 166.189C215.654 162.022 214.993 157.255 214.971 152.583C214.93 143.339 217.688 133.511 224.805 127.637C232.982 120.887 245.251 120.981 254.829 125.515C264.403 130.05 271.719 138.282 277.939 146.88C284.161 155.477 289.607 164.703 296.851 172.451C302.222 178.196 308.593 183.151 312.639 189.9C323.731 208.403 312.319 231.815 292.737 238.493C275.532 244.359 254.731 225.819 248.778 210.994" stroke="black"/>
<path fill-rule="evenodd" clip-rule="evenodd" d="M224.266 341.493C225.969 342.898 224.112 341.925 226.589 343.544C226.036 349.754 220.312 353.666 220.312 353.666C220.312 353.666 220.07 363.552 218.231 363.349C216.388 363.148 217.568 353.829 217.568 353.829C217.568 353.829 213.799 363.567 212.205 362.947C210.612 362.329 216.381 351.156 216.381 351.156C216.381 351.156 208.295 362.323 207.184 360.562C206.075 358.803 213.19 348.027 213.19 348.027C213.19 348.027 204.404 357.269 203.411 355.772C202.42 354.28 213.896 341.428 213.896 341.428C208.584 341.369 208.961 337.742 208.961 337.742L221.898 338.512C221.898 338.512 223.483 340.845 224.266 341.493" fill="#FFC6B2"/>
<path d="M224.266 341.493C225.969 342.898 224.112 341.925 226.589 343.544C226.036 349.754 220.312 353.666 220.312 353.666C220.312 353.666 220.07 363.552 218.231 363.349C216.388 363.148 217.568 353.829 217.568 353.829C217.568 353.829 213.799 363.567 212.205 362.947C210.612 362.329 216.381 351.156 216.381 351.156C216.381 351.156 208.295 362.323 207.184 360.562C206.075 358.803 213.19 348.027 213.19 348.027C213.19 348.027 204.404 357.269 203.411 355.772C202.42 354.28 213.896 341.428 213.896 341.428C208.584 341.369 208.961 337.742 208.961 337.742L221.898 338.512C221.898 338.512 223.483 340.845 224.266 341.493" stroke="black"/>
<path fill-rule="evenodd" clip-rule="evenodd" d="M347.86 155.046C350.074 155.435 348.356 154.699 351.229 155.538C355.947 151.237 355.32 144.48 355.32 144.48C355.32 144.48 363.233 138.113 361.921 136.869C360.601 135.623 353.737 142.331 353.737 142.331C353.737 142.331 359.321 133.429 357.819 132.627C356.32 131.828 350.81 143.121 350.81 143.121C350.81 143.121 354.864 130.104 352.732 130.376C350.605 130.65 346.261 142.695 346.261 142.695C346.261 142.695 348.303 130.364 346.466 130.559C344.627 130.753 341.652 146.907 341.652 146.907C337.32 143.369 334.287 145.634 334.287 145.634L343.77 154.962C343.77 154.962 346.843 154.868 347.86 155.046" fill="#FFC6B2"/>
<path d="M347.86 155.046C350.074 155.435 348.356 154.699 351.229 155.538C355.947 151.237 355.32 144.48 355.32 144.48C355.32 144.48 363.233 138.113 361.921 136.869C360.601 135.623 353.737 142.331 353.737 142.331C353.737 142.331 359.321 133.429 357.819 132.627C356.32 131.828 350.81 143.121 350.81 143.121C350.81 143.121 354.864 130.104 352.732 130.376C350.605 130.65 346.261 142.695 346.261 142.695C346.261 142.695 348.303 130.364 346.466 130.559C344.627 130.753 341.652 146.907 341.652 146.907C337.32 143.369 334.287 145.634 334.287 145.634L343.77 154.962C343.77 154.962 346.843 154.868 347.86 155.046" stroke="black"/>
<path fill-rule="evenodd" clip-rule="evenodd" d="M293.699 209.036C297.701 208.409 309.907 216.345 306.801 232.461C306.541 233.814 304.78 236.793 304.341 238.025C303.787 239.585 308.105 245.296 308.105 245.296L296.959 248.869C296.483 245.491 297.283 240.554 293.681 239.086C292.334 238.537 290.892 238.19 289.621 237.493C286.189 235.613 284.357 231.499 282.947 228.132C281.894 225.615 281.093 222.909 281.123 220.178C281.196 213.302 287.266 210.044 293.699 209.036" fill="#FFC6B2"/>
<path d="M293.699 209.036C297.701 208.409 309.907 216.345 306.801 232.461C306.541 233.814 304.78 236.793 304.341 238.025C303.787 239.585 308.105 245.296 308.105 245.296L296.959 248.869C296.483 245.491 297.283 240.554 293.681 239.086C292.334 238.537 290.892 238.19 289.621 237.493C286.189 235.613 284.357 231.499 282.947 228.132C281.894 225.615 281.093 222.909 281.123 220.178C281.196 213.302 287.266 210.044 293.699 209.036" stroke="black"/>
<path fill-rule="evenodd" clip-rule="evenodd" d="M316.019 253.173C316.019 247.373 314.186 245.158 308.118 245.158C302.05 245.158 294.039 247.373 294.039 253.173C294.039 258.976 298.324 266.236 304.395 266.236C310.462 266.236 316.019 258.976 316.019 253.173" fill="#FFC6B2"/>
<path d="M316.019 253.173C316.019 247.373 314.186 245.158 308.118 245.158C302.05 245.158 294.039 247.373 294.039 253.173C294.039 258.976 298.324 266.236 304.395 266.236C310.462 266.236 316.019 258.976 316.019 253.173" stroke="black"/>
<path fill-rule="evenodd" clip-rule="evenodd" d="M311.227 242.347C311.227 242.347 330.095 222.828 333.87 203.708C337.645 184.589 344.058 153.564 344.058 153.564L351.229 155.537C351.229 155.537 354.627 197.937 351.229 204.43C347.834 210.924 328.585 256.018 328.963 267.561L311.227 242.347Z" fill="#FFC6B2" stroke="black"/>
<path fill-rule="evenodd" clip-rule="evenodd" d="M277.593 251.797C277.593 251.797 271.178 252.879 261.365 275.247C251.553 297.613 221.362 339.253 221.362 339.253L226.269 343.786C226.269 343.786 255.705 321.783 261.365 308.436C267.025 295.088 274.195 278.494 277.593 279.214C280.989 279.937 295.33 260.093 277.593 251.797" fill="#FFC6B2"/>
<path d="M277.593 251.797C277.593 251.797 271.178 252.879 261.365 275.247C251.553 297.613 221.362 339.253 221.362 339.253L226.269 343.786C226.269 343.786 255.705 321.783 261.365 308.436C267.025 295.088 274.195 278.494 277.593 279.214C280.989 279.937 295.33 260.093 277.593 251.797" stroke="black"/>
<path fill-rule="evenodd" clip-rule="evenodd" d="M328.108 270.543L336.894 246.213C336.894 246.213 335.538 234.802 318.198 230.712L308.375 244.912L328.108 270.543Z" fill="#FF7B5B" stroke="black"/>
<path fill-rule="evenodd" clip-rule="evenodd" d="M280.522 249.931C280.522 249.931 270.157 250.807 261.756 269.321C261.756 269.321 270.995 282.119 277.755 282.551C277.755 282.551 302.859 261.021 280.522 249.931" fill="#FF7B5B"/>
<path d="M280.522 249.931C280.522 249.931 270.157 250.807 261.756 269.321C261.756 269.321 270.995 282.119 277.755 282.551C277.755 282.551 302.859 261.021 280.522 249.931" stroke="black"/>
<path fill-rule="evenodd" clip-rule="evenodd" d="M309.002 469.488C309.002 469.488 294.039 500.143 292.29 494.468C290.544 488.79 291.121 475.155 292.058 473.21C292.999 471.262 299.116 462.664 299.116 462.664L309.002 469.488Z" fill="#FFC6B2" stroke="black"/>
<path fill-rule="evenodd" clip-rule="evenodd" d="M310.145 323.747L323.828 318.498C323.828 318.498 364.435 390.484 364.267 410.456C364.098 430.425 308.495 470.413 308.495 470.413L299.116 462.664C299.116 462.664 325.471 423.785 334.648 413.696C339.237 408.65 306.384 383.924 301.408 360.132C296.432 336.341 310.145 323.747 310.145 323.747" fill="#654287"/>
<path d="M310.145 323.747L323.828 318.498C323.828 318.498 364.435 390.484 364.267 410.456C364.098 430.425 308.495 470.413 308.495 470.413L299.116 462.664C299.116 462.664 325.471 423.785 334.648 413.696C339.237 408.65 306.384 383.924 301.408 360.132C296.432 336.341 310.145 323.747 310.145 323.747" stroke="black"/>
<path fill-rule="evenodd" clip-rule="evenodd" d="M227.876 453.429C227.876 453.429 199.888 474.128 201.052 468.319C202.22 462.504 209.266 450.639 211.033 449.318C212.802 448 222.358 443.035 222.358 443.035L227.876 453.429Z" fill="#FFC6B2" stroke="black"/>
<path fill-rule="evenodd" clip-rule="evenodd" d="M272.918 349.238L313.4 325.698C313.4 325.698 315.007 407.468 305.288 425.148C295.571 442.828 226.982 454.029 226.982 454.029L222.358 443.035C222.358 443.035 264.674 417.739 277.666 412.789C290.659 407.836 272.918 349.238 272.918 349.238" fill="#775298"/>
<path d="M272.918 349.238L313.4 325.698C313.4 325.698 315.007 407.468 305.288 425.148C295.571 442.828 226.982 454.029 226.982 454.029L222.358 443.035C222.358 443.035 264.674 417.739 277.666 412.789C290.659 407.836 272.918 349.238 272.918 349.238" stroke="black"/>
<path fill-rule="evenodd" clip-rule="evenodd" d="M297.027 309.596C297.027 309.596 267.22 320.185 272.918 349.238C278.616 378.29 288.113 383.736 288.113 383.736L305.207 355.594L322.37 318.738L305.207 316.554L297.027 309.596Z" fill="#775298" stroke="black"/>
<path fill-rule="evenodd" clip-rule="evenodd" d="M311.227 242.347C311.227 242.347 333.173 254.687 333.173 282.57C333.173 282.57 330.385 314.359 325.866 321.305C325.866 321.305 318.522 323.105 309.364 321.305C299.762 319.419 290.47 312.648 290.47 312.648L282.97 273.728L277.136 251.004L280.299 249.957L296.804 248.138C296.804 248.138 294.433 272.875 312.862 260.591C316.744 258.004 308.03 245.105 308.03 245.105L311.227 242.347Z" fill="#FF7B5B" stroke="black"/>
<path fill-rule="evenodd" clip-rule="evenodd" d="M324.66 136.979L370.672 163.91L396.555 114.858L353.418 90.8125L324.66 136.979Z" fill="white" stroke="black"/>
<path fill-rule="evenodd" clip-rule="evenodd" d="M388.671 371.787L421.58 351.347L394.392 303.733L364.309 323.304L388.671 371.787Z" fill="white" stroke="black"/>
<path fill-rule="evenodd" clip-rule="evenodd" d="M226.641 168.891C226.727 168.813 227.743 169.738 229.35 171.626C230.95 173.516 233.132 176.389 235.323 180.268C237.522 184.129 239.697 189.029 241.251 194.717C242.859 200.362 243.937 206.708 246.409 212.821C247.693 215.841 249.248 218.652 251.099 221.137C252.966 223.606 255.037 225.773 257.169 227.663C261.526 231.342 266.091 233.872 270.158 235.334C274.222 236.817 277.703 237.482 280.123 237.72C282.54 237.989 283.907 238.028 283.908 238.188C283.915 238.287 282.552 238.496 280.07 238.448C277.589 238.429 273.977 237.953 269.724 236.585C265.467 235.236 260.658 232.74 256.06 228.98C253.804 227.048 251.612 224.811 249.637 222.239C247.679 219.653 246.025 216.696 244.682 213.531C242.107 207.141 241.089 200.74 239.591 195.169C238.161 189.58 236.173 184.77 234.163 180.9C232.165 177.019 230.182 174.077 228.777 172.071C227.363 170.07 226.535 168.985 226.641 168.891" fill="#22343D"/>
<path d="M226.641 168.891C226.727 168.813 227.743 169.738 229.35 171.626C230.95 173.516 233.132 176.389 235.323 180.268C237.522 184.129 239.697 189.029 241.251 194.717C242.859 200.362 243.937 206.708 246.409 212.821C247.693 215.841 249.248 218.652 251.099 221.137C252.966 223.606 255.037 225.773 257.169 227.663C261.526 231.342 266.091 233.872 270.158 235.334C274.222 236.817 277.703 237.482 280.123 237.72C282.54 237.989 283.907 238.028 283.908 238.188C283.915 238.287 282.552 238.496 280.07 238.448C277.589 238.429 273.977 237.953 269.724 236.585C265.467 235.236 260.658 232.74 256.06 228.98C253.804 227.048 251.612 224.811 249.637 222.239C247.679 219.653 246.025 216.696 244.682 213.531C242.107 207.141 241.089 200.74 239.591 195.169C238.161 189.58 236.173 184.77 234.163 180.9C232.165 177.019 230.182 174.077 228.777 172.071C227.363 170.07 226.535 168.985 226.641 168.891" stroke="black"/>
<path fill-rule="evenodd" clip-rule="evenodd" d="M283.172 137.383C283.51 137.331 283.839 141.876 286.373 148.598C287.638 151.946 289.521 155.798 292.225 159.66C293.576 161.593 295.131 163.498 296.891 165.396C298.639 167.303 300.543 169.239 302.343 171.411C305.951 175.795 308.434 180.532 310.771 184.714C313.092 188.937 314.941 192.954 315.88 196.547C316.861 200.13 316.918 203.214 316.607 205.259C316.282 207.314 315.773 208.355 315.689 208.326C315.527 208.284 315.791 207.184 315.883 205.193C315.963 203.205 315.711 200.308 314.615 196.922C313.555 193.522 311.65 189.691 309.272 185.558C306.857 181.426 304.353 176.784 300.906 172.606C299.176 170.516 297.299 168.586 295.54 166.632C293.772 164.688 292.164 162.663 290.807 160.637C288.085 156.58 286.268 152.537 285.13 149.042C283.966 145.548 283.47 142.599 283.236 140.568C283.003 138.532 283.066 137.393 283.172 137.383" fill="#22343D"/>
<path d="M283.172 137.383C283.51 137.331 283.839 141.876 286.373 148.598C287.638 151.946 289.521 155.798 292.225 159.66C293.576 161.593 295.131 163.498 296.891 165.396C298.639 167.303 300.543 169.239 302.343 171.411C305.951 175.795 308.434 180.532 310.771 184.714C313.092 188.937 314.941 192.954 315.88 196.547C316.861 200.13 316.918 203.214 316.607 205.259C316.282 207.314 315.773 208.355 315.689 208.326C315.527 208.284 315.791 207.184 315.883 205.193C315.963 203.205 315.711 200.308 314.615 196.922C313.555 193.522 311.65 189.691 309.272 185.558C306.857 181.426 304.353 176.784 300.906 172.606C299.176 170.516 297.299 168.586 295.54 166.632C293.772 164.688 292.164 162.663 290.807 160.637C288.085 156.58 286.268 152.537 285.13 149.042C283.966 145.548 283.47 142.599 283.236 140.568C283.003 138.532 283.066 137.393 283.172 137.383" stroke="black"/>
<path fill-rule="evenodd" clip-rule="evenodd" d="M297.278 226.553C297.26 226.423 298.01 226.303 298.718 225.469C298.881 225.277 299.045 224.996 299.042 224.832C299.038 224.657 298.916 224.351 298.705 224.176C298.487 223.979 298.244 223.884 297.923 223.917C297.592 223.941 297.188 224.106 296.661 224.185C295.507 224.339 294.607 223.685 294.015 223.155C293.406 222.598 292.942 222.032 292.595 221.525C291.905 220.505 291.691 219.767 291.797 219.713C291.919 219.648 292.335 220.258 293.113 221.114C293.501 221.539 293.991 222.027 294.57 222.497C295.14 222.953 295.838 223.369 296.535 223.259C296.905 223.211 297.335 223.038 297.859 223.002C298.393 222.949 298.987 223.196 299.312 223.564C299.659 223.94 299.853 224.383 299.812 224.907C299.709 225.444 299.425 225.695 299.19 225.929C298.176 226.82 297.245 226.675 297.278 226.553" fill="#FF7B5B"/>
<path d="M297.278 226.553C297.26 226.423 298.01 226.303 298.718 225.469C298.881 225.277 299.045 224.996 299.042 224.832C299.038 224.657 298.916 224.351 298.705 224.176C298.487 223.979 298.244 223.884 297.923 223.917C297.592 223.941 297.188 224.106 296.661 224.185C295.507 224.339 294.607 223.685 294.015 223.155C293.406 222.598 292.942 222.032 292.595 221.525C291.905 220.505 291.691 219.767 291.797 219.713C291.919 219.648 292.335 220.258 293.113 221.114C293.501 221.539 293.991 222.027 294.57 222.497C295.14 222.953 295.838 223.369 296.535 223.259C296.905 223.211 297.335 223.038 297.859 223.002C298.393 222.949 298.987 223.196 299.312 223.564C299.659 223.94 299.853 224.383 299.812 224.907C299.709 225.444 299.425 225.695 299.19 225.929C298.176 226.82 297.245 226.675 297.278 226.553" stroke="black"/>
<path fill-rule="evenodd" clip-rule="evenodd" d="M302.716 227.321L293.879 230.545C293.879 230.545 301.377 237.127 302.716 227.321" fill="white"/>
<path d="M302.716 227.321L293.879 230.545C293.879 230.545 301.377 237.127 302.716 227.321" stroke="black"/>
<path fill-rule="evenodd" clip-rule="evenodd" d="M292.997 226.772C293.35 227.446 292.827 228.418 291.829 228.944C290.831 229.472 289.736 229.355 289.383 228.681C289.03 228.01 289.553 227.037 290.551 226.509C291.549 225.982 292.644 226.099 292.997 226.772" fill="#FFB2A0"/>
<path d="M292.997 226.772C293.35 227.446 292.827 228.418 291.829 228.944C290.831 229.472 289.736 229.355 289.383 228.681C289.03 228.01 289.553 227.037 290.551 226.509C291.549 225.982 292.644 226.099 292.997 226.772" stroke="black"/>
<path fill-rule="evenodd" clip-rule="evenodd" d="M303.473 221.382C303.762 222.085 303.151 223.004 302.11 223.436C301.066 223.869 299.987 223.65 299.698 222.947C299.408 222.244 300.019 221.325 301.062 220.893C302.104 220.461 303.184 220.679 303.473 221.382" fill="#FFB2A0"/>
<path d="M303.473 221.382C303.762 222.085 303.151 223.004 302.11 223.436C301.066 223.869 299.987 223.65 299.698 222.947C299.408 222.244 300.019 221.325 301.062 220.893C302.104 220.461 303.184 220.679 303.473 221.382" stroke="black"/>
<path fill-rule="evenodd" clip-rule="evenodd" d="M294.14 239.322C294.14 239.322 297.097 239.926 300.865 238.981C300.865 238.981 299.008 240.792 295.972 241.213C295.972 241.213 295.292 239.952 294.14 239.322" fill="#FFA192"/>
<path d="M294.14 239.322C294.14 239.322 297.097 239.926 300.865 238.981C300.865 238.981 299.008 240.792 295.972 241.213C295.972 241.213 295.292 239.952 294.14 239.322" stroke="black"/>
<path fill-rule="evenodd" clip-rule="evenodd" d="M297.161 219.392C297.492 219.674 297.533 220.172 297.252 220.505C296.971 220.837 296.475 220.878 296.142 220.596C295.811 220.316 295.77 219.817 296.051 219.483C296.332 219.151 296.829 219.11 297.161 219.392" fill="#22343D"/>
<path d="M297.161 219.392C297.492 219.674 297.533 220.172 297.252 220.505C296.971 220.837 296.475 220.878 296.142 220.596C295.811 220.316 295.77 219.817 296.051 219.483C296.332 219.151 296.829 219.11 297.161 219.392" stroke="black"/>
<path fill-rule="evenodd" clip-rule="evenodd" d="M291.222 222.82C291.554 223.102 291.594 223.6 291.313 223.933C291.034 224.265 290.536 224.306 290.204 224.024C289.872 223.742 289.832 223.245 290.113 222.911C290.394 222.578 290.891 222.537 291.222 222.82" fill="#22343D"/>
<path d="M291.222 222.82C291.554 223.102 291.594 223.6 291.313 223.933C291.034 224.265 290.536 224.306 290.204 224.024C289.872 223.742 289.832 223.245 290.113 222.911C290.394 222.578 290.891 222.537 291.222 222.82" stroke="black"/>
<path fill-rule="evenodd" clip-rule="evenodd" d="M297.196 216.093C297.117 216.347 296.38 216.337 295.569 216.584C294.751 216.805 294.131 217.205 293.93 217.032C293.722 216.888 294.203 215.999 295.312 215.683C296.419 215.363 297.295 215.859 297.196 216.093" fill="#22343D"/>
<path d="M297.196 216.093C297.117 216.347 296.38 216.337 295.569 216.584C294.751 216.805 294.131 217.205 293.93 217.032C293.722 216.888 294.203 215.999 295.312 215.683C296.419 215.363 297.295 215.859 297.196 216.093" stroke="black"/>
<path fill-rule="evenodd" clip-rule="evenodd" d="M286.937 222.31C286.739 222.163 287.05 221.315 287.805 220.468C288.568 219.601 289.546 219.312 289.648 219.553C289.758 219.789 289.162 220.338 288.492 221.1C287.813 221.859 287.152 222.472 286.937 222.31" fill="#22343D"/>
<path d="M286.937 222.31C286.739 222.163 287.05 221.315 287.805 220.468C288.568 219.601 289.546 219.312 289.648 219.553C289.758 219.789 289.162 220.338 288.492 221.1C287.813 221.859 287.152 222.472 286.937 222.31" stroke="black"/>
<path fill-rule="evenodd" clip-rule="evenodd" d="M283.604 228.893C283.604 228.893 280.77 226.505 279.409 228.666C278.049 230.827 285.531 231.965 285.531 231.965L283.604 228.893Z" fill="#FFC6B2" stroke="black"/>
<path fill-rule="evenodd" clip-rule="evenodd" d="M215.452 446.703C215.452 446.703 211.388 448.475 210.329 449.54C209.268 450.603 199.551 467.442 200.788 469.569C202.026 471.696 211.77 464.476 211.77 464.476C211.77 464.476 203.616 466.025 215.452 446.703" fill="#775298"/>
<path d="M215.452 446.703C215.452 446.703 211.388 448.475 210.329 449.54C209.268 450.603 199.551 467.442 200.788 469.569C202.026 471.696 211.77 464.476 211.77 464.476C211.77 464.476 203.616 466.025 215.452 446.703" stroke="black"/>
<path fill-rule="evenodd" clip-rule="evenodd" d="M294.745 468.97C294.745 468.97 291.859 472.1 291.413 473.538C290.968 474.973 290.171 494.415 292.253 495.72C294.333 497.027 300.021 486.299 300.021 486.299C300.021 486.299 293.221 491.643 294.745 469.015" fill="#775298"/>
<path d="M294.745 468.97C294.745 468.97 291.859 472.1 291.413 473.538C290.968 474.973 290.171 494.415 292.253 495.72C294.333 497.027 300.021 486.299 300.021 486.299C300.021 486.299 293.221 491.643 294.745 469.015" stroke="black"/>
</g>
<defs>
<filter id="filter0_d" x="0.5" y="0.50061" width="611.356" height="503.83" filterUnits="userSpaceOnUse" color-interpolation-filters="sRGB">
<feFlood flood-opacity="0" result="BackgroundImageFix"/>
<feColorMatrix in="SourceAlpha" type="matrix" values="0 0 0 0 0 0 0 0 0 0 0 0 0 0 0 0 0 0 127 0"/>
<feOffset dy="4"/>
<feGaussianBlur stdDeviation="2"/>
<feColorMatrix type="matrix" values="0 0 0 0 0 0 0 0 0 0 0 0 0 0 0 0 0 0 0.25 0"/>
<feBlend mode="normal" in2="BackgroundImageFix" result="effect1_dropShadow"/>
<feBlend mode="normal" in="SourceGraphic" in2="effect1_dropShadow" result="shape"/>
</filter>
</defs>
</svg>
